<?xml version="1.0" standalone="no"?>
<!DOCTYPE svg PUBLIC "-//W3C//DTD SVG 20010904//EN"
 "http://www.w3.org/TR/2001/REC-SVG-20010904/DTD/svg10.dtd">
<svg version="1.0" xmlns="http://www.w3.org/2000/svg"
 width="1200.000000pt" height="673.000000pt" viewBox="0 0 1200.000000 673.000000"
 preserveAspectRatio="xMidYMid meet">

<g transform="translate(0.000000,673.000000) scale(0.100000,-0.100000)"
fill="#000000" stroke="none">
<path d="M0 4716 l0 -2013 63 -6 c437 -41 813 -82 819 -91 24 -35 9 -42 -139
-70 -246 -46 -371 -65 -518 -76 -77 -6 -159 -13 -182 -16 l-43 -5 0 -1220 0
-1219 4698 1 c2583 1 4675 5 4647 9 -110 17 -658 123 -775 150 -69 15 -151 38
-182 50 l-58 21 0 43 c0 40 -28 150 -80 316 -53 170 -124 460 -141 580 -13 93
-6 457 19 940 l7 125 50 3 c28 2 174 -8 325 -23 151 -14 484 -46 740 -70 256
-25 562 -54 680 -65 118 -11 232 -22 252 -25 34 -5 37 -3 43 26 10 43 71 108
123 130 57 25 75 24 110 -6 27 -22 29 -30 31 -97 1 -40 4 -75 7 -77 7 -7 354
-44 699 -76 154 -14 393 -37 530 -50 138 -14 256 -25 263 -25 9 0 12 36 12
148 -1 145 -1 146 -16 102 -34 -101 -124 -132 -189 -67 -45 45 -57 96 -47 193
13 115 8 124 -101 177 -85 41 -184 111 -246 173 -23 23 -26 34 -26 98 0 87 19
131 88 199 47 48 49 49 100 44 205 -20 250 -28 305 -56 31 -16 74 -33 95 -39
l37 -10 0 336 c0 185 -4 342 -8 348 -4 7 -16 13 -27 15 -11 3 -20 11 -20 18 0
8 -7 15 -15 17 -8 1 -22 5 -30 8 -12 5 -16 -2 -18 -30 -5 -73 -31 -157 -56
-182 -29 -29 -72 -32 -110 -7 -14 10 -45 21 -68 26 -23 6 -76 31 -117 57 -98
61 -145 62 -272 8 -86 -37 -138 -79 -176 -142 -31 -52 -75 -118 -89 -132 -22
-21 -69 -22 -102 -2 -34 21 -56 79 -67 180 -3 30 -21 100 -40 156 -38 109 -38
115 -50 509 -5 195 -17 271 -45 297 -11 10 -20 23 -20 28 0 6 -10 10 -22 11
-13 0 21 9 75 19 91 17 139 18 648 11 302 -4 552 -10 555 -14 4 -4 -3 -14 -14
-24 -24 -21 -29 -45 -18 -89 4 -19 15 -34 27 -37 25 -7 16 -34 -24 -68 -28
-24 -30 -32 -35 -105 -5 -93 14 -154 47 -154 11 0 23 4 26 10 3 6 19 10 36 10
l29 0 0 119 c0 118 0 119 -25 125 -33 8 -33 43 0 58 l25 11 0 233 0 233 -102
3 c-57 2 -317 0 -578 -4 -305 -5 -507 -4 -565 2 -49 6 -117 11 -150 13 l-60 2
3 35 c4 37 41 81 83 100 13 5 32 14 42 20 9 5 25 14 35 18 47 23 55 105 34
331 -11 118 -11 136 3 151 8 9 14 27 13 40 -3 19 7 28 51 50 30 15 60 35 68
46 14 19 18 94 6 94 -5 0 -33 -23 -63 -50 -58 -52 -69 -57 -88 -38 -9 9 0 23
36 62 l47 51 -38 3 c-47 4 -64 -9 -73 -54 -4 -25 -1 -43 15 -69 13 -23 18 -42
13 -55 -7 -18 -9 -19 -36 -5 -15 8 -31 15 -34 15 -2 0 -2 -27 2 -61 3 -37 2
-68 -5 -81 -9 -16 -7 -26 11 -50 27 -37 13 -62 -32 -53 -26 6 -28 4 -28 -24 0
-16 -4 -33 -10 -36 -5 -3 -17 -23 -26 -43 -32 -74 -77 -163 -86 -168 -4 -3 -6
-10 -3 -15 4 -5 3 -9 -2 -9 -4 0 -21 -16 -36 -35 -28 -35 -38 -68 -39 -132 -1
-19 -8 -35 -17 -39 -9 -4 -106 -9 -216 -10 -110 -2 -231 -6 -270 -9 -38 -3
-297 -6 -573 -8 l-504 -2 -24 28 c-26 31 -28 45 -24 188 1 53 -3 120 -9 150
-6 30 -12 65 -14 78 -2 14 -9 27 -15 29 -16 5 -15 67 1 100 8 15 13 40 12 55
-1 15 2 30 7 33 12 8 10 42 -6 72 -11 21 -23 28 -48 30 -18 1 -60 7 -93 14
-33 6 -105 12 -160 13 -144 4 -265 50 -299 115 -27 50 -33 270 -12 405 14 96
17 101 53 133 53 45 97 55 258 58 168 3 221 10 229 29 3 8 2 15 -3 15 -5 0
-11 9 -14 19 -3 14 -25 25 -78 41 -41 12 -109 33 -152 47 -43 14 -123 31 -178
38 -55 7 -106 19 -114 25 -28 23 -45 110 -45 222 l0 108 -335 0 -335 0 0 -178
c0 -209 -11 -259 -64 -292 -22 -13 -42 -39 -60 -79 -31 -70 -34 -124 -7 -148
11 -9 17 -23 13 -31 -4 -11 -1 -14 9 -10 9 3 25 -1 37 -11 18 -13 23 -31 30
-106 9 -90 7 -233 -4 -333 -6 -56 -21 -72 -70 -72 -22 0 -25 -2 -14 -15 16
-19 1 -19 -26 0 -17 11 -24 12 -36 2 -21 -17 -39 -72 -44 -137 -2 -30 -11
-102 -19 -160 -8 -58 -19 -163 -25 -235 -5 -71 -17 -153 -25 -182 -20 -66 -30
-69 -240 -78 -88 -3 -209 -10 -270 -14 -193 -14 -805 -13 -866 1 -36 8 -112
11 -224 9 -93 -1 -336 -4 -540 -4 l-370 -2 -6 310 c-4 171 -10 637 -14 1038
l-8 727 -1296 -1 c-935 0 -1289 -3 -1271 -11 110 -48 160 -74 223 -117 86 -60
140 -113 135 -134 -2 -11 -24 0 -83 44 -212 155 -442 221 -650 185 -49 -8
-101 -18 -115 -21 -25 -6 -25 -6 -5 10 11 10 34 23 50 31 26 11 -89 13 -772
14 l-803 0 0 -2014z m467 1942 c-3 -8 -6 -5 -6 6 -1 11 2 17 5 13 3 -3 4 -12
1 -19z m43 -4 c0 -8 -4 -12 -10 -9 -5 3 -10 13 -10 21 0 8 5 12 10 9 6 -3 10
-13 10 -21z m1433 -110 c103 -35 237 -112 237 -136 0 -11 -34 -10 -45 1 -18
17 -170 89 -225 107 -66 21 -140 52 -140 60 0 11 103 -8 173 -32z m28 -278
c115 -25 319 -125 319 -158 0 -7 -5 -6 -15 2 -8 6 -18 9 -24 6 -5 -3 -40 9
-77 28 -55 27 -193 81 -282 111 -13 5 -8 25 6 25 4 0 37 -7 73 -14z m-31 -209
c19 -5 29 -12 22 -15 -9 -3 -10 -7 -2 -17 9 -11 3 -11 -32 -4 -24 5 -65 17
-93 26 -49 17 -49 17 -20 23 33 8 73 3 125 -13z m-870 -125 c0 -10 -11 -16
-124 -66 -86 -39 -90 -40 -82 -27 4 5 0 11 -6 14 -13 4 69 49 132 73 41 15 80
18 80 6z m1177 -110 c51 -18 122 -50 157 -72 68 -43 197 -171 178 -178 -6 -2
-8 -11 -5 -20 4 -9 -27 15 -68 54 -124 117 -240 171 -436 204 -64 11 -118 22
-122 25 -16 16 33 26 114 22 66 -3 115 -13 182 -35z m-1917 -17 c0 -2 -23 -16
-51 -31 -29 -14 -73 -46 -99 -70 -47 -44 -48 -44 -76 -28 -16 9 -37 27 -47 40
l-18 24 35 0 c19 0 41 6 49 14 8 8 40 21 72 30 31 8 60 17 63 20 7 7 72 8 72
1z m1475 -624 c91 -43 285 -181 285 -203 0 -22 -47 -2 -141 60 -57 38 -129 83
-159 101 -30 18 -68 44 -85 58 l-30 25 35 -6 c19 -4 62 -19 95 -35z m-891 -19
c2 -4 -4 -18 -14 -32 -15 -20 -20 -22 -34 -11 -21 18 -20 38 2 44 28 8 41 7
46 -1z m2426 -362 c30 -22 54 -69 48 -97 -3 -14 -8 -10 -22 17 -10 19 -34 49
-55 67 -28 25 -32 32 -18 33 11 0 31 -9 47 -20z m-372 -55 c55 -13 81 -25 107
-50 32 -30 34 -35 24 -58 -30 -66 -309 -120 -619 -121 -194 0 -292 14 -368 51
-57 29 -63 49 -25 83 103 93 640 151 881 95z m-1188 -260 c14 -19 14 -19 -2
-6 -10 7 -18 18 -18 24 0 6 1 8 3 6 1 -2 9 -13 17 -24z m6835 11 c42 -18 57
-46 57 -105 0 -27 -61 -272 -151 -604 -82 -306 -153 -574 -157 -595 -6 -34 -5
-35 8 -18 18 23 29 26 125 32 39 2 82 10 95 17 46 25 68 42 68 53 0 12 64 34
98 34 26 0 32 -19 22 -66 -5 -22 -11 -51 -15 -66 -3 -15 -15 -36 -27 -47 -16
-16 -18 -23 -10 -34 7 -8 8 -18 4 -22 -4 -5 -2 -5 5 -1 20 11 26 -15 7 -33
-15 -14 -27 -16 -54 -10 -32 7 -105 5 -158 -5 -12 -3 -45 1 -72 8 -46 12 -50
12 -50 -4 0 -11 -10 -20 -25 -22 -30 -6 -35 -2 -35 30 0 30 -21 24 -31 -9 -14
-47 -112 -408 -179 -664 -108 -409 -157 -586 -165 -593 -4 -4 -5 2 -2 13 4 11
40 151 81 310 41 160 93 358 115 440 126 474 169 634 254 950 259 953 255 932
204 982 l-27 28 -193 5 -192 6 183 2 c139 2 191 -1 217 -12z m-1332 -3 c-67
-2 -179 -2 -250 0 -70 1 -15 3 122 3 138 0 195 -2 128 -3z m310 0 c-35 -2 -91
-2 -125 0 -35 2 -7 3 62 3 69 0 97 -1 63 -3z m-2065 -97 c78 -7 156 -10 172
-8 35 5 36 4 10 -56 -10 -26 -45 -135 -76 -242 -82 -283 -103 -347 -103 -327
-1 9 -5 17 -9 17 -4 0 -8 -8 -8 -17 -1 -10 -4 -31 -8 -48 -6 -23 -5 -26 3 -15
13 18 13 3 1 -25 -5 -11 -9 -15 -9 -8 -1 16 -27 6 -29 -10 -1 -7 -3 -29 -6
-49 -2 -20 -7 -45 -10 -56 -4 -10 -9 -41 -11 -67 -7 -72 -43 -199 -219 -790
-23 -77 -47 -150 -54 -161 -6 -12 -9 -24 -6 -27 3 -3 -22 -103 -57 -222 -40
-139 -58 -220 -52 -226 5 -5 37 -14 71 -19 126 -21 111 -29 -43 -25 -104 3
-138 2 -110 -5 22 -5 58 -9 80 -10 28 0 36 -3 26 -9 -11 -7 -9 -10 10 -14 13
-3 -12 -3 -56 -1 -44 3 -98 10 -120 15 -40 9 -162 13 -154 5 2 -2 45 -9 94
-15 248 -29 351 -42 360 -45 31 -10 -144 -16 -202 -7 -280 45 -409 56 -478 41
-22 -5 -85 -12 -140 -15 -55 -4 -133 -10 -175 -14 -41 -4 -86 -4 -100 0 -17 5
2 8 55 9 72 1 182 16 145 19 -32 3 73 40 147 52 135 21 121 -9 122 266 0 131
0 243 1 250 0 24 55 30 175 17 66 -7 134 -13 150 -13 l30 1 -30 10 c-16 5 -37
12 -45 15 -8 3 -24 8 -35 10 -33 6 -179 52 -191 60 -24 17 -37 91 -38 218 -1
177 7 220 50 259 39 36 43 60 26 151 -43 221 -61 416 -62 650 0 66 -5 193 -11
283 -9 120 -9 169 -1 187 l12 25 382 -1 c221 0 444 -6 526 -13z m3503 -16 c23
-13 24 -41 4 -80 -33 -65 -104 -63 -160 3 -39 46 -43 61 -17 76 22 14 148 14
173 1z m1361 -6 c73 -6 76 -7 60 -23 -9 -10 -24 -20 -33 -24 -19 -6 -71 -109
-74 -147 -1 -14 -5 -36 -9 -50 -7 -25 -11 -36 -40 -100 -9 -20 -25 -87 -35
-149 -15 -90 -25 -121 -47 -154 -33 -46 -78 -65 -104 -43 -8 7 -20 12 -26 9
-9 -3 -43 81 -50 127 -1 8 -7 44 -13 80 -6 37 -15 106 -21 155 -5 50 -12 99
-14 110 -2 11 -7 58 -11 105 -4 47 -9 88 -11 92 -15 24 189 30 428 12z m-1364
-331 l-4 -38 -64 -8 c-66 -8 -80 -2 -80 35 0 23 53 46 108 47 l43 1 -3 -37z
m-6151 -229 c-2 -14 8 -62 23 -107 26 -79 58 -217 97 -417 21 -111 25 -412 5
-432 -22 -22 -27 4 -25 115 2 67 -3 140 -11 182 -29 144 -46 211 -60 235 -8
14 -22 51 -31 83 -13 44 -21 57 -32 53 -9 -4 -17 1 -20 14 -3 11 -9 20 -13 20
-4 0 -10 17 -13 38 -4 20 -12 57 -18 82 -6 25 -13 59 -16 77 -4 28 -10 32 -44
38 -49 9 -50 22 -1 30 20 4 44 8 52 10 8 1 37 3 64 4 47 1 48 0 43 -25z m6163
-49 c0 -9 8 -18 18 -22 9 -3 29 -17 44 -31 21 -19 30 -22 41 -14 11 9 17 -2
31 -58 18 -67 58 -130 84 -130 17 0 15 -25 -3 -40 -12 -10 -12 -14 0 -26 7 -8
18 -14 23 -14 5 0 12 -10 14 -23 3 -15 0 -24 -8 -24 -7 0 -10 6 -7 14 3 8 -2
13 -12 13 -11 0 -15 -5 -11 -15 6 -16 -5 -23 -41 -30 -10 -2 -18 -4 -18 -5 0
-6 -190 0 -220 7 -69 18 -72 20 -68 61 2 20 5 65 6 99 2 34 6 65 9 68 4 4 4
22 1 40 -7 42 27 117 60 133 32 16 57 14 57 -3z m-7082 -698 c28 -34 -27 -50
-138 -41 -57 5 -80 11 -80 20 0 8 10 16 23 18 12 3 31 7 42 9 47 10 143 6 153
-6z m7358 -72 c71 -29 86 -62 85 -179 -1 -116 -19 -232 -40 -258 -32 -38 -179
-46 -314 -16 -92 20 -106 127 -33 239 14 20 30 55 37 78 13 43 89 123 134 142
32 13 93 10 131 -6z m-476 -20 c7 -8 18 -15 26 -15 7 0 18 -9 24 -20 9 -16 8
-20 -5 -20 -9 0 -18 -6 -21 -13 -9 -26 -114 -12 -114 15 0 5 -4 6 -10 3 -6 -4
-10 5 -10 20 0 14 4 24 9 21 4 -3 17 1 27 9 25 19 58 19 74 0z m1234 -48 c41
-27 52 -82 36 -185 -8 -48 -20 -93 -27 -100 -7 -7 -18 -21 -25 -30 -24 -31
-57 -42 -151 -52 -51 -5 -117 -19 -147 -29 -97 -36 -190 -23 -190 26 0 39 17
63 104 148 45 44 88 90 96 103 8 13 27 37 43 55 15 17 27 34 27 37 0 6 81 45
109 53 26 6 98 -9 125 -26z m-6209 -47 c112 -13 125 -17 125 -39 0 -23 -55
-28 -400 -37 -263 -6 -565 7 -583 25 -19 19 59 41 171 50 157 12 583 12 687 1z
m-846 -147 c1 -21 -4 -23 -48 -23 -28 0 -53 5 -56 10 -3 6 4 10 17 10 30 0 68
26 69 48 1 25 17 -16 18 -45z m1058 21 c34 -7 63 -44 63 -78 l-1 -31 -22 27
c-21 25 -135 80 -160 77 -7 -1 -19 -1 -27 0 -12 1 -12 3 -2 9 12 8 104 6 149
-4z m-2282 -4 c149 -9 175 -14 175 -35 0 -37 -322 -59 -755 -52 -170 2 -318 8
-327 12 -31 13 -20 32 25 43 128 32 618 50 882 32z m1231 -158 c-3 -2 -16 -2
-30 2 -26 6 -26 6 -6 26 11 11 17 26 14 35 -4 8 -3 23 1 33 6 12 11 1 17 -37
4 -30 6 -56 4 -59z m-1909 -79 c-15 -16 -17 -16 -17 -1 0 9 6 18 13 21 20 7
22 -2 4 -20z m1918 -22 c0 -8 -4 -16 -10 -18 -16 -5 -38 14 -30 26 9 16 40 9
40 -8z m78 -66 c-4 -15 -86 -12 -91 3 -3 10 8 12 44 10 27 -2 48 -7 47 -13z
m778 -49 c-18 -19 -30 -39 -27 -45 4 -6 31 -11 59 -11 91 0 300 -30 326 -46
20 -14 21 -18 9 -30 -8 -8 -45 -21 -83 -29 -83 -18 -375 -45 -460 -44 -42 1
-25 4 55 11 168 12 212 26 89 27 l-97 1 19 37 c10 21 19 43 19 49 0 12 106
114 118 114 3 0 -9 -15 -27 -34z m-670 -107 c-1 -29 -8 -58 -14 -62 -7 -4 -68
-6 -136 -4 -111 4 -122 2 -105 -11 17 -13 8 -13 -79 -7 -146 10 -216 40 -150
66 51 20 206 47 332 59 69 6 127 13 130 15 15 16 25 -8 22 -56z m-1431 -138
c0 -16 15 -19 138 -25 163 -8 260 -21 309 -41 29 -12 33 -18 23 -29 -29 -36
-181 -65 -480 -91 -207 -18 -223 -18 -215 -5 3 6 35 10 70 10 71 0 216 19 227
29 4 4 -38 5 -94 3 l-103 -5 33 28 c26 21 32 34 32 65 0 23 8 48 21 64 22 28
39 27 39 -3z m-694 -81 c12 -25 20 -46 19 -48 -2 -2 -59 -6 -127 -8 -124 -4
-273 -22 -263 -32 3 -3 24 -9 48 -13 l42 -6 -47 -2 c-25 0 -81 6 -124 14 -78
15 -117 36 -99 54 20 18 114 41 250 60 270 40 274 39 301 -19z m3675 -107 l34
-7 -30 -7 c-30 -7 -29 -7 7 -8 20 0 40 4 43 9 3 6 22 10 41 10 19 0 34 -4 34
-10 0 -6 27 -10 62 -10 61 0 69 -10 19 -25 -15 -5 -21 -3 -17 3 4 7 -5 7 -27
1 -24 -6 -70 -3 -158 10 -68 10 -115 20 -104 21 11 2 0 6 -25 10 -43 7 -42 7
21 8 37 1 82 -1 100 -5z m-3873 -10 c-16 -2 -40 -2 -55 0 -16 2 -3 4 27 4 30
0 43 -2 28 -4z m542 -4 c-25 -4 -108 -7 -185 -6 l-140 1 145 6 c80 3 163 6
185 7 l40 0 -45 -8z m98 4 c-10 -2 -26 -2 -35 0 -10 3 -2 5 17 5 19 0 27 -2
18 -5z m4379 1 c-3 -3 -12 -4 -19 -1 -8 3 -5 6 6 6 11 1 17 -2 13 -5z m-4824
-11 c-7 -2 -19 -2 -25 0 -7 3 -2 5 12 5 14 0 19 -2 13 -5z m3042 -3 c4 -6 -14
-10 -47 -9 -39 0 -48 3 -33 9 28 12 73 12 80 0z m-159 -9 c-58 -6 -86 -25 -49
-34 10 -2 2 -2 -17 0 -19 3 -39 8 -45 11 -19 12 51 31 110 30 l60 -1 -59 -6z
m764 -17 c36 -4 69 -10 75 -15 16 -15 139 -10 174 7 25 13 47 14 109 8 l77 -8
-45 -8 c-25 -5 -69 -7 -97 -4 -29 2 -55 0 -58 -5 -4 -5 4 -9 17 -10 22 0 22
-1 3 -9 -29 -12 -138 -12 -130 0 6 10 -36 15 -85 11 -45 -4 -115 10 -99 20 9
6 -5 9 -41 9 -30 0 -62 5 -70 11 -11 7 2 9 45 4 33 -3 89 -8 125 -11z m-193
-10 c-3 -3 -12 -4 -19 -1 -8 3 -5 6 6 6 11 1 17 -2 13 -5z m700 -10 c-3 -3
-12 -4 -19 -1 -8 3 -5 6 6 6 11 1 17 -2 13 -5z m-1239 -11 c-10 -2 -26 -2 -35
0 -10 3 -2 5 17 5 19 0 27 -2 18 -5z m1190 0 c-10 -2 -28 -2 -40 0 -13 2 -5 4
17 4 22 1 32 -1 23 -4z m-913 -28 c174 -19 732 -92 932 -120 94 -14 176 -25
182 -25 6 0 10 -4 8 -8 -1 -5 21 -44 49 -88 28 -43 62 -99 75 -124 13 -25 28
-48 32 -51 26 -19 -206 -43 -338 -35 -60 3 -225 24 -365 46 -313 49 -779 120
-791 120 -4 0 -6 6 -3 14 4 10 -11 15 -58 19 -35 3 -108 13 -163 21 -175 27
-157 15 29 -18 151 -26 176 -33 163 -44 -13 -11 -45 -9 -189 13 -95 14 -193
28 -218 31 -77 9 -90 14 -90 32 0 15 7 17 43 14 23 -3 39 -1 35 3 -3 4 -48 7
-100 8 -79 0 -85 1 -38 7 53 6 54 6 20 12 -19 4 -61 10 -93 13 -32 4 -56 9
-54 12 3 2 113 18 244 34 339 41 451 58 510 76 74 22 76 40 5 48 -31 4 -61 8
-67 11 -13 5 84 -3 240 -21z m248 18 c-7 -2 -19 -2 -25 0 -7 3 -2 5 12 5 14 0
19 -2 13 -5z m-1600 -10 c-7 -2 -19 -2 -25 0 -7 3 -2 5 12 5 14 0 19 -2 13 -5z
m2237 -11 c31 -5 44 -10 30 -12 l-25 -2 25 -9 c21 -7 19 -8 -10 -3 -19 2 -70
8 -112 11 -75 6 -98 16 -60 27 19 5 69 1 152 -12z m-380 -8 l-55 -13 86 6 c80
5 172 -3 344 -28 91 -13 96 -15 89 -34 -4 -9 -19 -15 -38 -15 -31 0 -365 42
-466 59 -30 5 -91 13 -134 16 -124 11 -71 25 89 24 138 -1 139 -1 85 -15z
m-2013 0 c-3 -3 -12 -4 -19 -1 -8 3 -5 6 6 6 11 1 17 -2 13 -5z m4116 -1 c-7
-2 -21 -2 -30 0 -10 3 -4 5 12 5 17 0 24 -2 18 -5z m-4116 -79 c-3 -3 -12 -4
-19 -1 -8 3 -5 6 6 6 11 1 17 -2 13 -5z m76 -11 c-7 -2 -21 -2 -30 0 -10 3 -4
5 12 5 17 0 24 -2 18 -5z m65 -10 c-10 -2 -26 -2 -35 0 -10 3 -2 5 17 5 19 0
27 -2 18 -5z m4978 -18 c-3 -11 -6 -23 -6 -27 0 -5 -11 -8 -24 -8 -19 0 -23 4
-19 20 3 13 0 20 -8 21 -21 1 19 15 42 15 15 0 19 -5 15 -21z m-4908 8 c-10
-2 -26 -2 -35 0 -10 3 -2 5 17 5 19 0 27 -2 18 -5z m335 -50 c-7 -2 -19 -2
-25 0 -7 3 -2 5 12 5 14 0 19 -2 13 -5z m85 -10 c-10 -2 -26 -2 -35 0 -10 3
-2 5 17 5 19 0 27 -2 18 -5z m1544 -533 c111 -17 240 -33 287 -36 180 -11 184
-14 276 -199 43 -88 79 -145 101 -165 21 -18 29 -30 20 -30 -97 0 -913 143
-1033 181 l-33 11 0 114 c0 101 2 116 20 134 29 29 119 26 362 -10z"/>
<path d="M5033 2973 c-18 -6 -16 -30 2 -37 9 -3 18 1 22 10 7 18 -7 33 -24 27z"/>
<path d="M2777 3773 c18 -51 44 -101 59 -114 15 -12 17 -12 12 1 -3 8 -13 41
-22 73 -13 44 -21 57 -36 57 -14 0 -18 -5 -13 -17z"/>
<path d="M3643 1623 c9 -2 25 -2 35 0 9 3 1 5 -18 5 -19 0 -27 -2 -17 -5z"/>
<path d="M10540 6720 c43 -28 223 -50 236 -29 3 5 26 9 52 9 26 1 61 7 77 15
27 12 7 13 -175 14 -138 0 -200 -3 -190 -9z"/>
<path d="M10743 6001 c-12 -9 -28 -31 -37 -49 -15 -28 -15 -38 -3 -80 10 -34
11 -55 3 -75 -15 -40 3 -52 79 -52 78 0 94 12 78 56 -10 25 -9 37 2 60 35 67
8 126 -68 147 -26 7 -38 6 -54 -7z"/>
<path d="M11220 5320 c-35 -38 -33 -55 12 -112 l30 -38 91 -2 c101 -2 108 -1
185 8 41 5 58 13 77 36 44 52 28 72 -68 88 -29 5 -90 16 -137 25 -165 31 -156
31 -190 -5z"/>
<path d="M11976 4182 c-3 -5 1 -9 9 -9 8 0 15 4 15 9 0 4 -4 8 -9 8 -6 0 -12
-4 -15 -8z"/>
<path d="M11964 2341 c2 -15 6 -33 10 -39 4 -7 11 -31 15 -54 8 -39 9 -36 10
33 1 62 -2 78 -15 83 -23 9 -24 8 -20 -23z"/>
<path d="M8586 1674 c-13 -49 -3 -254 12 -266 25 -21 53 -89 78 -184 13 -52
31 -108 41 -126 9 -18 26 -60 38 -93 l21 -60 169 -6 c94 -4 249 -8 345 -9 96
-1 207 -7 245 -13 39 -6 108 -9 155 -7 143 7 546 5 945 -3 209 -4 532 -10 717
-14 l336 -6 12 44 c13 48 7 133 -11 155 -8 10 -7 17 4 28 20 21 30 130 17 196
-6 30 -12 62 -13 71 -1 13 -16 18 -61 23 -32 3 -463 6 -958 6 -883 0 -898 0
-886 19 14 23 0 44 -45 67 -23 12 -35 13 -56 4 -22 -9 -37 -8 -71 4 -81 28
-329 151 -330 164 0 18 21 15 111 -18 46 -16 84 -28 86 -26 2 2 -30 16 -72 31
-42 15 -78 32 -81 36 -3 5 -19 9 -35 9 -36 0 -51 -27 -25 -45 12 -9 15 -20 10
-39 -4 -16 -2 -26 5 -26 7 0 9 -9 6 -22 -5 -20 1 -25 50 -40 54 -18 245 -106
245 -114 0 -2 -184 -4 -409 -4 l-408 0 -48 80 c-26 45 -62 103 -81 130 -19 27
-34 56 -34 65 0 25 -17 17 -24 -11z m1158 -234 c14 -14 -4 -30 -32 -30 -22 0
-27 5 -27 25 0 21 4 23 25 18 14 -3 29 -9 34 -13z m-329 -70 c-182 -6 -645 -1
-654 6 -2 2 187 3 420 2 336 -1 385 -3 234 -8z m1350 0 c-281 -6 -1006 -2
-1014 5 -2 3 281 4 630 3 420 -2 550 -4 384 -8z m-2085 -55 c0 -5 -5 -3 -10 5
-5 8 -10 20 -10 25 0 6 5 3 10 -5 5 -8 10 -19 10 -25z"/>
<path d="M9510 1610 c8 -5 20 -10 25 -10 6 0 3 5 -5 10 -8 5 -19 10 -25 10 -5
0 -3 -5 5 -10z"/>
<path d="M9560 1590 c8 -5 20 -10 25 -10 6 0 3 5 -5 10 -8 5 -19 10 -25 10 -5
0 -3 -5 5 -10z"/>
<path d="M9630 1560 c8 -5 20 -10 25 -10 6 0 3 5 -5 10 -8 5 -19 10 -25 10 -5
0 -3 -5 5 -10z"/>
<path d="M11940 515 c-25 -7 -200 -57 -390 -110 -190 -53 -543 -155 -785 -225
-242 -71 -480 -140 -530 -154 l-90 -25 928 0 927 -1 0 265 c0 146 -3 265 -7
264 -5 0 -28 -6 -53 -14z"/>
</g>
</svg>
